PathFileType	4	(x/y/z)	S05_M20_T08
DataRate	CameraRate	NumFrames	NumMarkers	Units	OrigDataRate	OrigDataStartFrame	OrigNumFrames
240	240	6	50	mm	240	454	518
Frame#	Time	Sternum			R.Acromium			L.Acromium			Top.Head			R.ASIS			L.ASIS			R.PSIS			L.PSIS			R.Great.Tro			L.Great.Tro			R.Iliac.Crest			L.Iliac.Crest			V.Sacral			R.Thigh.Upper.Post			R.Thigh.Lower.Ant			R.Thigh.Lower.Post			R.Thigh.Upper.Ant			R.Knee.Lat			R.Knee.Med			R.Shank.Upper.Post			R.Shank.Lower.Ant			R.Shank.Lower.Post			R.Shank.Upper.Ant			R.Ankle.Lat			R.Ankle.Med			R.Heel.Upper			R.Heel.Med			R.Heel.Lat			R.Toe.Lat			R.Toe.Med			R.Toe.Tip			L.Thigh.Upper.Post			L.Thigh.Lower.Ant			L.Thigh.Lower.Post			L.Thigh.Upper.Ant			L.Knee.Lat			L.Shank.Upper.Post			L.Shank.Lower.Ant			L.Shank.Lower.Post			L.Shank.Upper.Ant			L.Ankle.Lat			L.Ankle.Med			L.Heel.Upper			L.Heel.Med			L.Heel.Lat			L.Toe.Lat			L.Toe.Med			L.Toe.Tip			Cervical.Spine			Back			
		X1	Y1	Z1	X2	Y2	Z2	X3	Y3	Z3	X4	Y4	Z4	X5	Y5	Z5	X6	Y6	Z6	X7	Y7	Z7	X8	Y8	Z8	X9	Y9	Z9	X10	Y10	Z10	X11	Y11	Z11	X12	Y12	Z12	X13	Y13	Z13	X14	Y14	Z14	X15	Y15	Z15	X16	Y16	Z16	X17	Y17	Z17	X18	Y18	Z18	X19	Y19	Z19	X20	Y20	Z20	X21	Y21	Z21	X22	Y22	Z22	X23	Y23	Z23	X24	Y24	Z24	X25	Y25	Z25	X26	Y26	Z26	X27	Y27	Z27	X28	Y28	Z28	X29	Y29	Z29	X30	Y30	Z30	X31	Y31	Z31	X32	Y32	Z32	X33	Y33	Z33	X34	Y34	Z34	X35	Y35	Z35	X36	Y36	Z36	X37	Y37	Z37	X38	Y38	Z38	X39	Y39	Z39	X40	Y40	Z40	X41	Y41	Z41	X42	Y42	Z42	X43	Y43	Z43	X44	Y44	Z44	X45	Y45	Z45	X46	Y46	Z46	X47	Y47	Z47	X48	Y48	Z48	X49	Y49	Z49	X50	Y50	Z50	

454	1.8875	1607.6	1264.9	301.81	1516.3	1527.2	454.85	1518.6	1546	126.52	1503.5	1825.6	285.03	1542.3	1016	428.32	1550.4	1018	178.34	1343.8	1026.8	340.3	1347.9	1033.9	248.68	1472.9	935.08	496.91	1455.7	941.86	104.62	1451.1	1097.4	466.57	1461.3	1094.1	130.13	1332.4	994.82	304.67	1627.8	751.37	501.3	1702.5	710.36	444	1657.8	667.26	482.2	1667.9	791.63	462.23	1688.2	579.9	462.2	1704.3	567.26	329.73	1675.9	329.08	444.68	1752.4	282.67	455.83	1698.7	256.73	430.93	1730.2	356.34	467.79	1766.2	175.35	438.32	1792.9	210.53	356.62	1740.5	99.659	370.75	1769.6	76.76	346.34	1753.1	76.916	409.21	1893.1	137.39	491.33	1941	165.52	383.24	1978.9	209.56	438.11	1422.2	704.17	116.32	1489.8	620.36	143.51	1418	610.34	136.26	1501.2	708.67	122.3	1413.2	518.29	145.48	1315.7	329.65	148.32	1370.8	260.11	158.34	1300.9	260.33	170.01	1382.3	329.63	143.92	1309.3	122.57	181.66	1339	133.55	270.33	1241.7	74.773	235.99	1251.9	47.45	266.62	1242.2	49.392	205.62	1423.2	39.769	148.69	1448.8	43.785	267.71	1513	51.5	214.4	1464.1	1570.2	295.4	1344.7	1296.3	288.5
455	1.8917	1612.7	1264.1	301.94	1521.7	1526.1	455.52	1523.5	1545.4	127.24	1508.6	1824.8	286.24	1547.8	1015.1	428.29	1555.1	1017.3	178.26	1349	1026.1	340.85	1352.9	1033.3	249.24	1478.4	934.05	496.96	1460	941.42	104.74	1456.7	1096.5	466.9	1465.9	1093.6	130.38	1337.5	994.22	305.21	1632.3	749.61	501.12	1706.7	708.22	443.71	1661.9	665.36	482.07	1672.5	789.65	461.94	1692.3	578.17	462.01	1708.4	565.42	329.23	1685.6	327.34	445.44	1763.1	282.83	456.91	1710.2	255.5	432.03	1739.2	355.99	468.51	1779.9	175.68	439.84	1805.7	211.23	358.08	1756	99.146	372.66	1785.7	76.863	348.26	1769.1	76.873	411.14	1907.7	140.97	493.11	1955	169.93	384.96	1991.7	215.09	439.72	1425.2	704	116.42	1492.3	619.83	143.49	1420.5	610.18	136.38	1504.2	708.08	122.24	1415.1	518.1	145.59	1316.6	329.92	148.58	1371.6	260.16	158.49	1301.7	260.68	170.35	1383.3	329.6	144.05	1309.5	122.76	181.93	1339.4	133.61	270.57	1241.8	74.931	236.41	1252.1	47.546	266.96	1242.2	49.616	205.98	1423.2	39.808	148.75	1448.9	43.706	267.75	1513	51.339	214.39	1469.4	1569.5	296.08	1349.7	1295.6	289.21
456	1.8958	1617.7	1263.2	302.09	1527.1	1525.1	456.2	1528.5	1544.8	127.98	1513.8	1823.9	287.46	1553.3	1014.1	428.26	1559.9	1016.6	178.2	1354.3	1025.4	341.41	1357.8	1032.8	249.81	1483.9	932.98	497	1464.3	940.97	104.87	1462.3	1095.5	467.25	1470.5	1093	130.65	1342.6	993.59	305.77	1636.8	747.8	500.95	1710.9	706	443.44	1665.9	663.39	481.94	1677.1	787.6	461.64	1696.4	576.39	461.83	1712.4	563.53	328.73	1695.2	325.69	446.21	1773.7	283.07	457.99	1721.5	254.39	433.15	1748	355.69	469.24	1793.3	176.17	441.35	1818.4	212.07	359.52	1771.3	98.855	374.55	1801.6	77.192	350.16	1784.9	77.052	413.04	1921.9	144.65	494.86	1968.6	174.43	386.64	2004.2	220.64	441.28	1428.1	703.82	116.53	1494.9	619.28	143.47	1423.1	610.01	136.5	1507.2	707.47	122.19	1417.1	517.91	145.7	1317.6	330.18	148.84	1372.5	260.21	158.65	1302.5	261.02	170.7	1384.3	329.56	144.19	1309.7	122.96	182.2	1339.8	133.68	270.82	1242	75.099	236.83	1252.3	47.652	267.31	1242.3	49.851	206.35	1423.2	39.848	148.82	1449	43.626	267.78	1513.1	51.179	214.37	1474.6	1568.7	296.78	1354.8	1294.9	289.94
457	1.9	1622.8	1262.2	302.25	1532.5	1524	456.9	1533.6	1544.2	128.73	1519	1823	288.7	1558.9	1013.1	428.24	1564.7	1015.8	178.15	1359.6	1024.7	341.98	1362.8	1032.2	250.4	1489.4	931.87	497.05	1468.6	940.49	105.01	1467.9	1094.4	467.61	1475.2	1092.4	130.94	1347.7	992.95	306.34	1641.3	745.92	500.77	1715.1	703.72	443.17	1670	661.37	481.83	1681.6	785.49	461.35	1700.5	574.58	461.66	1716.4	561.61	328.24	1704.7	324.13	447	1784.2	283.4	459.07	1732.7	253.41	434.31	1756.8	355.45	469.98	1806.5	176.8	442.85	1830.8	213.02	360.96	1786.4	98.774	376.42	1817.2	77.732	352.03	1800.4	77.435	414.93	1935.9	148.41	496.58	1981.9	178.99	388.27	2016.4	226.19	442.8	1431.1	703.61	116.66	1497.6	618.71	143.46	1425.6	609.82	136.63	1510.3	706.84	122.15	1419	517.7	145.83	1318.5	330.45	149.11	1373.3	260.25	158.82	1303.3	261.37	171.05	1385.4	329.52	144.34	1310	123.15	182.49	1340.2	133.74	271.08	1242.1	75.279	237.25	1252.4	47.769	267.67	1242.4	50.095	206.72	1423.2	39.89	148.9	1449.1	43.547	267.82	1513.2	51.019	214.36	1479.8	1567.9	297.47	1359.9	1294.1	290.69
458	1.9042	1627.8	1261.3	302.42	1537.9	1522.9	457.6	1538.6	1543.5	129.49	1524.2	1822.1	289.95	1564.4	1012	428.23	1569.5	1015	178.11	1364.9	1024	342.56	1367.8	1031.6	251	1495	930.72	497.11	1472.9	939.99	105.16	1473.5	1093.4	467.98	1479.9	1091.7	131.23	1352.9	992.29	306.92	1645.7	744	500.6	1719.2	701.39	442.9	1674	659.3	481.71	1686.2	783.33	461.05	1704.5	572.75	461.5	1720.4	559.67	327.75	1714.1	322.66	447.82	1794.5	283.81	460.15	1743.7	252.54	435.49	1765.4	355.26	470.71	1819.5	177.57	444.35	1843	214.08	362.39	1801.2	98.887	378.25	1832.4	78.463	353.89	1815.7	78.008	416.8	1949.6	152.23	498.26	1994.9	183.58	389.85	2028.3	231.72	444.26	1434.2	703.39	116.79	1500.2	618.12	143.45	1428.2	609.61	136.76	1513.3	706.19	122.11	1421	517.49	145.96	1319.6	330.72	149.39	1374.2	260.29	159	1304.1	261.71	171.4	1386.4	329.47	144.5	1310.2	123.36	182.78	1340.7	133.81	271.33	1242.3	75.47	237.67	1252.6	47.898	268.03	1242.5	50.349	207.1	1423.2	39.933	148.97	1449.2	43.467	267.86	1513.3	50.861	214.35	1485.1	1567	298.19	1365	1293.2	291.45
459	1.9083	1632.9	1260.3	302.61	1543.4	1521.8	458.33	1543.6	1542.8	130.27	1529.5	1821.2	291.21	1569.9	1010.9	428.23	1574.3	1014.2	178.09	1370.2	1023.3	343.15	1372.9	1031	251.62	1500.5	929.52	497.17	1477.3	939.47	105.33	1479.2	1092.3	468.37	1484.6	1091.1	131.55	1358	991.61	307.5	1650.2	742.04	500.43	1723.3	699.03	442.64	1678	657.2	481.61	1690.7	781.14	460.75	1708.6	570.9	461.35	1724.4	557.72	327.28	1723.4	321.29	448.64	1804.6	284.29	461.22	1754.6	251.8	436.69	1773.9	355.13	471.45	1832.2	178.45	445.82	1854.9	215.23	363.8	1815.7	99.177	380.06	1847.4	79.365	355.71	1830.6	78.75	418.65	1963	156.1	499.9	2007.6	188.18	391.39	2039.8	237.21	445.68	1437.2	703.15	116.93	1502.9	617.52	143.46	1430.9	609.39	136.9	1516.5	705.52	122.09	1423.1	517.25	146.1	1320.6	330.98	149.67	1375.1	260.33	159.17	1305	262.06	171.75	1387.5	329.42	144.66	1310.4	123.56	183.08	1341.1	133.88	271.59	1242.5	75.674	238.09	1252.8	48.039	268.39	1242.5	50.615	207.47	1423.2	39.977	149.05	1449.3	43.388	267.9	1513.3	50.703	214.33	1490.4	1566.1	298.91	1370.1	1292.4	292.23
